<svg xmlns="http://www.w3.org/2000/svg" viewBox="0 0 1024 1024"><path d="M512 0c282.77 0 512 229.23 512 512v.042c0 225.556-145.853 417.047-348.39 485.302L672 998.4c-19.2 0-32-12.8-32-25.6V832c0-44.8-12.8-76.8-32-96 108.8-12.8 230.4-57.6 230.4-256 0-51.2-19.2-96-51.2-128 0-19.2 25.6-64 0-140.8 0 0-51.2-12.8-147.2 51.2-38.361-11.189-82.429-17.625-128-17.625s-89.638 6.436-131.343 18.449L384 262.4c-96-64-140.8-51.2-140.8-51.2-25.6 70.4-6.4 128 0 134.4-38.4 38.4-57.6 83.2-57.6 140.8 0 192 121.6 236.8 236.8 256-19.2 6.4-32 32-38.4 64-25.6 12.8-102.4 32-147.2-44.8-6.4-12.8-38.4-51.2-76.8-51.2-44.8 0-19.2 25.6 0 32 19.2 12.8 44.8 64 51.2 76.8 12.8 25.6 44.8 83.2 172.8 64v89.6c0 12.8-6.4 32-32 25.6C145.853 929.088 0 737.598 0 512.042v-.045.003C0 229.23 229.23 0 512 0z"/></svg>