<!-- Generated by IcoMoon.io -->
<svg 
version="1.1" 
xmlns="http://www.w3.org/2000/svg" 
viewBox="0 0 1024 1024">
<title>linkedin-icon</title>
<g id="icomoon-ignore">
</g>
<path d="M1024 1024v-373.76c0-184.32-40.96-327.68-256-327.68-102.4 0-168.96 56.32-199.68 112.64v-97.28h-209.92v686.080h209.92v-337.92c0-92.16 15.36-174.080 128-174.080 107.52 0 112.64 102.4 112.64 179.2v332.8h215.040zM15.36 337.92h215.040v686.080h-215.040v-686.080zM122.88 0c-66.56 0-122.88 51.2-122.88 122.88 0 66.56 51.2 122.88 122.88 122.88 67.865 0 122.88-55.015 122.88-122.88s-55.015-122.88-122.88-122.88v0z"></path>
</svg>
